<svg width="302" height="346" viewBox="0 0 302 346" fill="none" xmlns="http://www.w3.org/2000/svg">
<path d="M59.3357 31.7941C62.528 16.5645 64.1241 8.94973 69.6341 4.47487C75.1442 0 82.9245 0 98.485 0H201.236C217.366 0 225.431 0 231.019 4.71675C236.607 9.4335 237.961 17.3838 240.669 33.2845L266.044 182.284C269.736 203.962 271.582 214.801 265.589 221.9C259.597 229 248.602 229 226.612 229H67.2535C44.4876 229 33.1046 229 27.1016 221.608C21.0987 214.217 23.4339 203.076 28.1043 180.794L59.3357 31.7941Z" fill="url(#paint0_linear_2_13)"/>
<path d="M87 4.21967e-06C87 8.53592 88.6683 16.9883 91.9098 24.8744C95.1512 32.7606 99.9022 39.9261 105.892 45.9619C111.881 51.9977 118.991 56.7856 126.817 60.0522C134.642 63.3187 143.03 65 151.5 65C159.97 65 168.358 63.3187 176.183 60.0522C184.009 56.7856 191.119 51.9977 197.108 45.9619C203.098 39.9261 207.849 32.7606 211.09 24.8744C214.332 16.9883 216 8.53593 216 9.92518e-06" stroke="white" stroke-width="10"/>
<path d="M36.0039 272.586C36.0039 273.406 36.1328 274.086 36.3906 274.625C36.6484 275.141 36.9648 275.586 37.3398 275.961C37.7383 276.312 38.1602 276.605 38.6055 276.84C39.0508 277.074 39.4609 277.32 39.8359 277.578C40.2344 277.836 40.5625 278.129 40.8203 278.457C41.0781 278.785 41.207 279.207 41.207 279.723C41.207 280.59 40.9023 281.258 40.293 281.727C39.6836 282.172 38.9805 282.395 38.1836 282.395C37.4336 282.395 36.7305 282.16 36.0742 281.691C35.4414 281.223 34.8789 280.59 34.3867 279.793C33.918 278.973 33.543 278.023 33.2617 276.945C32.9805 275.844 32.8398 274.684 32.8398 273.465C32.8398 271.965 33.0742 270.535 33.543 269.176C34.0117 267.793 34.7031 266.586 35.6172 265.555C36.5312 264.5 37.6562 263.668 38.9922 263.059C40.3516 262.449 41.8984 262.145 43.6328 262.145C44.8047 262.145 46.082 262.344 47.4648 262.742C48.8477 263.117 50.2188 263.727 51.5781 264.57C52.9609 265.414 54.2852 266.504 55.5508 267.84C56.8398 269.176 57.9766 270.805 58.9609 272.727C59.9688 274.648 60.7656 276.875 61.3516 279.406C61.9375 281.938 62.2305 284.809 62.2305 288.02C62.2305 292.168 61.6094 295.883 60.3672 299.164C59.1484 302.445 57.4844 305.234 55.375 307.531C53.2891 309.805 50.8633 311.551 48.0977 312.77C45.332 313.965 42.4023 314.562 39.3086 314.562C36.2383 314.562 33.3086 314.035 30.5195 312.98C27.7305 311.926 25.2695 310.32 23.1367 308.164C21.0273 305.984 19.3398 303.23 18.0742 299.902C16.832 296.551 16.2109 292.59 16.2109 288.02C16.2109 284.48 16.6797 281.258 17.6172 278.352C18.5781 275.445 19.8555 272.867 21.4492 270.617C23.0664 268.367 24.9414 266.48 27.0742 264.957C29.207 263.41 31.4688 262.238 33.8594 261.441L35.0547 262.953C34.375 263.633 33.7422 264.336 33.1562 265.062C32.5703 265.789 32.0312 266.621 31.5391 267.559C31.0469 268.473 30.6016 269.539 30.2031 270.758C29.8281 271.953 29.5117 273.371 29.2539 275.012C28.9961 276.629 28.7969 278.504 28.6562 280.637C28.5156 282.77 28.4453 285.23 28.4453 288.02C28.4453 291.629 28.6328 294.711 29.0078 297.266C29.4062 299.82 29.9102 301.965 30.5195 303.699C31.1523 305.41 31.8555 306.781 32.6289 307.812C33.4258 308.82 34.2227 309.582 35.0195 310.098C35.8164 310.613 36.5898 310.953 37.3398 311.117C38.0898 311.258 38.7461 311.328 39.3086 311.328C39.8711 311.328 40.5156 311.258 41.2422 311.117C41.9922 310.953 42.7539 310.613 43.5273 310.098C44.3242 309.582 45.1094 308.82 45.8828 307.812C46.6562 306.781 47.3359 305.41 47.9219 303.699C48.5312 301.965 49.0234 299.82 49.3984 297.266C49.7734 294.711 49.9609 291.629 49.9609 288.02C49.9609 284.855 49.8203 282.102 49.5391 279.758C49.2578 277.414 48.8828 275.41 48.4141 273.746C47.9688 272.082 47.4414 270.723 46.832 269.668C46.2461 268.59 45.625 267.746 44.9688 267.137C44.3359 266.504 43.6914 266.07 43.0352 265.836C42.4023 265.602 41.8164 265.484 41.2773 265.484C40.4336 265.484 39.6836 265.684 39.0273 266.082C38.3711 266.48 37.8203 267.02 37.375 267.699C36.9297 268.355 36.5898 269.117 36.3555 269.984C36.1211 270.828 36.0039 271.695 36.0039 272.586ZM90.2148 296.492C90.2148 293.539 90.0742 291.184 89.793 289.426C89.5352 287.645 89.1836 286.297 88.7383 285.383C88.293 284.445 87.8008 283.836 87.2617 283.555C86.7227 283.25 86.1719 283.098 85.6094 283.098C84.9297 283.098 84.3203 283.285 83.7812 283.66C83.2656 284.012 82.8086 284.422 82.4102 284.891C82.0352 285.359 81.707 285.828 81.4258 286.297C81.168 286.766 80.9453 287.117 80.7578 287.352V310.836C80.7578 311.141 80.7109 311.516 80.6172 311.961C80.5234 312.383 80.2891 312.793 79.9141 313.191C79.5625 313.566 79.0234 313.883 78.2969 314.141C77.5938 314.422 76.6211 314.562 75.3789 314.562C74.1367 314.562 73.1523 314.41 72.4258 314.105C71.7227 313.824 71.1836 313.484 70.8086 313.086C70.4336 312.688 70.1992 312.277 70.1055 311.855C70.0117 311.434 69.9648 311.094 69.9648 310.836V283.695C69.9648 283.016 69.8008 282.43 69.4727 281.938C69.168 281.422 68.6406 281.164 67.8906 281.164C67.4922 281.164 67.1523 281.234 66.8711 281.375C66.5898 281.516 66.2852 281.715 65.957 281.973L65.2188 281.094C65.7578 280.648 66.3555 280.215 67.0117 279.793C67.6914 279.348 68.418 278.961 69.1914 278.633C69.9648 278.305 70.7969 278.035 71.6875 277.824C72.5781 277.613 73.5156 277.508 74.5 277.508C76.0234 277.508 77.207 277.766 78.0508 278.281C78.8945 278.773 79.5156 279.371 79.9141 280.074C80.3125 280.777 80.5469 281.516 80.6172 282.289C80.7109 283.039 80.7578 283.672 80.7578 284.188C81.625 282.945 82.6094 281.832 83.7109 280.848C84.1562 280.426 84.6484 280.016 85.1875 279.617C85.75 279.219 86.3359 278.867 86.9453 278.562C87.5781 278.234 88.2344 277.977 88.9141 277.789C89.6172 277.602 90.332 277.508 91.0586 277.508C92.6523 277.508 94.0586 277.812 95.2773 278.422C96.5195 279.031 97.5625 280.051 98.4062 281.48C99.25 282.91 99.8945 284.809 100.34 287.176C100.785 289.52 101.008 292.438 101.008 295.93C101.008 299.328 100.703 302.281 100.094 304.789C99.4844 307.297 98.6875 309.43 97.7031 311.188C96.7188 312.945 95.6055 314.375 94.3633 315.477C93.1211 316.602 91.8672 317.48 90.6016 318.113C89.3359 318.746 88.1172 319.18 86.9453 319.414C85.7969 319.672 84.8008 319.812 83.957 319.836L83.5703 318.395C84.2734 318.23 84.918 317.973 85.5039 317.621C86.1133 317.27 86.6641 316.754 87.1562 316.074C87.6484 315.395 88.082 314.539 88.457 313.508C88.832 312.453 89.1484 311.141 89.4062 309.57C89.6875 308 89.8867 306.148 90.0039 304.016C90.1445 301.859 90.2148 299.352 90.2148 296.492ZM117.355 297.863C117.355 298.613 117.461 299.434 117.672 300.324C117.906 301.191 118.234 302.07 118.656 302.961C119.078 303.852 119.594 304.707 120.203 305.527C120.836 306.324 121.551 307.039 122.348 307.672C123.168 308.305 124.07 308.809 125.055 309.184C126.039 309.559 127.117 309.746 128.289 309.746C129.109 309.746 129.871 309.652 130.574 309.465C131.277 309.277 131.934 309.02 132.543 308.691C133.152 308.363 133.738 307.988 134.301 307.566C134.863 307.121 135.426 306.652 135.988 306.16L136.867 307.004C136.328 307.73 135.637 308.527 134.793 309.395C133.949 310.262 132.93 311.082 131.734 311.855C130.539 312.605 129.145 313.238 127.551 313.754C125.957 314.246 124.141 314.492 122.102 314.492C120.062 314.492 118.07 314.129 116.125 313.402C114.203 312.652 112.492 311.539 110.992 310.062C109.492 308.586 108.285 306.746 107.371 304.543C106.48 302.34 106.035 299.762 106.035 296.809C106.035 294.676 106.305 292.719 106.844 290.938C107.383 289.156 108.109 287.551 109.023 286.121C109.961 284.691 111.039 283.438 112.258 282.359C113.5 281.281 114.801 280.391 116.16 279.688C117.52 278.961 118.902 278.422 120.309 278.07C121.738 277.695 123.109 277.508 124.422 277.508C126.156 277.508 127.668 277.695 128.957 278.07C130.246 278.445 131.312 278.949 132.156 279.582C133.023 280.215 133.668 280.953 134.09 281.797C134.512 282.617 134.723 283.484 134.723 284.398C134.723 285.5 134.406 286.496 133.773 287.387C133.141 288.254 132.297 289.016 131.242 289.672L117.355 297.863ZM124.422 290.727C124.727 290.539 124.973 290.363 125.16 290.199C125.371 290.012 125.535 289.801 125.652 289.566C125.77 289.309 125.852 289.004 125.898 288.652C125.969 288.277 126.004 287.82 126.004 287.281C126.004 286.695 125.934 286.051 125.793 285.348C125.676 284.621 125.465 283.941 125.16 283.309C124.855 282.676 124.469 282.148 124 281.727C123.531 281.305 122.969 281.094 122.312 281.094C121.469 281.094 120.742 281.352 120.133 281.867C119.547 282.359 119.055 283.004 118.656 283.801C118.281 284.598 117.977 285.512 117.742 286.543C117.531 287.551 117.367 288.57 117.25 289.602C117.133 290.633 117.062 291.629 117.039 292.59C117.016 293.527 117.004 294.324 117.004 294.98L124.422 290.727ZM152.547 319.098C153.484 319.098 154.41 318.922 155.324 318.57C156.238 318.242 157.047 317.68 157.75 316.883C158.477 316.109 159.062 315.09 159.508 313.824C159.953 312.559 160.176 311.012 160.176 309.184C160.176 307.215 159.684 305.305 158.699 303.453C157.738 301.602 156.52 299.785 155.043 298.004C153.59 296.199 152.008 294.418 150.297 292.66C148.609 290.879 147.027 289.074 145.551 287.246C144.098 285.395 142.879 283.496 141.895 281.551C140.934 279.582 140.453 277.531 140.453 275.398C140.453 273.266 140.84 271.344 141.613 269.633C142.41 267.898 143.477 266.434 144.812 265.238C146.172 264.02 147.742 263.082 149.523 262.426C151.328 261.77 153.25 261.441 155.289 261.441C157.469 261.441 159.402 261.676 161.09 262.145C162.801 262.59 164.242 263.211 165.414 264.008C166.609 264.781 167.512 265.707 168.121 266.785C168.73 267.84 169.035 268.965 169.035 270.16C169.035 270.723 168.953 271.309 168.789 271.918C168.625 272.504 168.367 273.043 168.016 273.535C167.664 274.027 167.219 274.438 166.68 274.766C166.141 275.094 165.508 275.258 164.781 275.258C163.914 275.258 163.27 275 162.848 274.484C162.449 273.945 162.145 273.289 161.934 272.516C161.746 271.742 161.582 270.898 161.441 269.984C161.301 269.047 161.078 268.191 160.773 267.418C160.469 266.645 160.012 266 159.402 265.484C158.793 264.945 157.902 264.676 156.73 264.676C156.098 264.676 155.465 264.816 154.832 265.098C154.223 265.379 153.66 265.812 153.145 266.398C152.652 266.961 152.254 267.688 151.949 268.578C151.645 269.469 151.492 270.523 151.492 271.742C151.492 273.148 151.785 274.52 152.371 275.855C152.957 277.191 153.73 278.516 154.691 279.828C155.652 281.117 156.742 282.418 157.961 283.73C159.203 285.02 160.457 286.332 161.723 287.668C163.012 288.98 164.266 290.34 165.484 291.746C166.727 293.129 167.828 294.57 168.789 296.07C169.75 297.57 170.523 299.141 171.109 300.781C171.695 302.422 171.988 304.145 171.988 305.949C171.988 308.598 171.473 310.965 170.441 313.051C169.434 315.113 168.051 316.848 166.293 318.254C164.559 319.684 162.52 320.773 160.176 321.523C157.832 322.273 155.336 322.648 152.688 322.648C150.297 322.648 148.176 322.344 146.324 321.734C144.496 321.148 142.949 320.363 141.684 319.379C140.418 318.395 139.457 317.27 138.801 316.004C138.168 314.762 137.852 313.473 137.852 312.137C137.852 311.574 137.934 310.977 138.098 310.344C138.285 309.688 138.543 309.09 138.871 308.551C139.223 308.012 139.656 307.566 140.172 307.215C140.688 306.84 141.285 306.652 141.965 306.652C142.668 306.652 143.23 306.828 143.652 307.18C144.098 307.531 144.449 308 144.707 308.586C144.965 309.172 145.176 309.84 145.34 310.59C145.504 311.34 145.68 312.102 145.867 312.875C146.055 313.648 146.289 314.41 146.57 315.16C146.852 315.91 147.238 316.578 147.73 317.164C148.223 317.75 148.855 318.219 149.629 318.57C150.402 318.922 151.375 319.098 152.547 319.098ZM189.531 284.188C190.398 282.945 191.383 281.832 192.484 280.848C192.93 280.426 193.422 280.016 193.961 279.617C194.523 279.219 195.109 278.867 195.719 278.562C196.352 278.234 197.008 277.977 197.688 277.789C198.391 277.602 199.105 277.508 199.832 277.508C201.402 277.508 202.809 277.812 204.051 278.422C205.293 279.031 206.336 280.051 207.18 281.48C208.023 282.91 208.668 284.809 209.113 287.176C209.559 289.52 209.781 292.438 209.781 295.93C209.781 299.328 209.477 302.281 208.867 304.789C208.258 307.297 207.461 309.43 206.477 311.188C205.492 312.945 204.379 314.375 203.137 315.477C201.895 316.602 200.641 317.48 199.375 318.113C198.109 318.746 196.891 319.18 195.719 319.414C194.547 319.672 193.539 319.812 192.695 319.836L192.344 318.395C193.398 318.137 194.336 317.656 195.156 316.953C195.977 316.25 196.668 315.102 197.23 313.508C197.793 311.891 198.215 309.723 198.496 307.004C198.801 304.285 198.953 300.781 198.953 296.492C198.953 293.539 198.812 291.184 198.531 289.426C198.273 287.645 197.922 286.297 197.477 285.383C197.055 284.445 196.562 283.836 196 283.555C195.461 283.25 194.91 283.098 194.348 283.098C193.668 283.098 193.07 283.285 192.555 283.66C192.039 284.012 191.582 284.422 191.184 284.891C190.809 285.359 190.48 285.828 190.199 286.297C189.941 286.766 189.719 287.117 189.531 287.352V310.836C189.531 311.141 189.484 311.516 189.391 311.961C189.297 312.383 189.062 312.793 188.688 313.191C188.336 313.566 187.797 313.883 187.07 314.141C186.367 314.422 185.395 314.562 184.152 314.562C182.91 314.562 181.926 314.41 181.199 314.105C180.473 313.824 179.922 313.484 179.547 313.086C179.195 312.688 178.973 312.277 178.879 311.855C178.785 311.434 178.738 311.094 178.738 310.836V265.484C178.738 264.805 178.574 264.219 178.246 263.727C177.941 263.211 177.414 262.953 176.664 262.953C176.266 262.953 175.914 263.023 175.609 263.164C175.328 263.281 175.023 263.469 174.695 263.727L173.992 262.883C174.531 262.438 175.129 262.004 175.785 261.582C176.441 261.137 177.156 260.75 177.93 260.422C178.727 260.094 179.57 259.824 180.461 259.613C181.352 259.402 182.289 259.297 183.273 259.297C184.797 259.297 185.98 259.508 186.824 259.93C187.668 260.328 188.289 260.832 188.688 261.441C189.086 262.027 189.32 262.66 189.391 263.34C189.484 263.996 189.531 264.582 189.531 265.098V284.188ZM214.809 296C214.809 292.93 215.254 290.246 216.145 287.949C217.035 285.629 218.219 283.695 219.695 282.148C221.195 280.602 222.93 279.441 224.898 278.668C226.867 277.895 228.93 277.508 231.086 277.508C233.242 277.508 235.305 277.871 237.273 278.598C239.242 279.301 240.965 280.391 242.441 281.867C243.941 283.344 245.137 285.219 246.027 287.492C246.918 289.742 247.363 292.414 247.363 295.508C247.363 298.578 246.918 301.297 246.027 303.664C245.137 306.031 243.941 308.023 242.441 309.641C240.965 311.258 239.242 312.488 237.273 313.332C235.305 314.152 233.242 314.562 231.086 314.562C228.93 314.562 226.867 314.176 224.898 313.402C222.93 312.605 221.195 311.434 219.695 309.887C218.219 308.34 217.035 306.406 216.145 304.086C215.254 301.766 214.809 299.07 214.809 296ZM236.43 295.648C236.43 293.773 236.359 291.969 236.219 290.234C236.102 288.477 235.855 286.918 235.48 285.559C235.105 284.199 234.566 283.121 233.863 282.324C233.16 281.504 232.234 281.094 231.086 281.094C229.938 281.094 229.012 281.527 228.309 282.395C227.605 283.238 227.066 284.363 226.691 285.77C226.316 287.152 226.07 288.734 225.953 290.516C225.836 292.297 225.777 294.125 225.777 296C225.777 297.875 225.836 299.715 225.953 301.52C226.07 303.301 226.316 304.895 226.691 306.301C227.066 307.707 227.605 308.844 228.309 309.711C229.012 310.555 229.938 310.977 231.086 310.977C232.234 310.977 233.16 310.531 233.863 309.641C234.566 308.75 235.105 307.578 235.48 306.125C235.855 304.672 236.102 303.031 236.219 301.203C236.359 299.375 236.43 297.523 236.43 295.648ZM254.395 283.695C254.395 283.016 254.23 282.43 253.902 281.938C253.598 281.422 253.07 281.164 252.32 281.164C251.922 281.164 251.582 281.234 251.301 281.375C251.02 281.516 250.715 281.715 250.387 281.973L249.648 281.094C250.188 280.648 250.785 280.215 251.441 279.793C252.121 279.348 252.848 278.961 253.621 278.633C254.395 278.305 255.227 278.035 256.117 277.824C257.008 277.613 257.945 277.508 258.93 277.508C259.984 277.508 260.887 277.672 261.637 278C262.387 278.328 263.008 278.727 263.5 279.195C264.016 279.641 264.402 280.121 264.66 280.637C264.918 281.129 265.07 281.551 265.117 281.902C265.586 281.246 266.137 280.648 266.77 280.109C267.426 279.57 268.129 279.113 268.879 278.738C269.652 278.34 270.461 278.035 271.305 277.824C272.172 277.613 273.062 277.508 273.977 277.508C275.852 277.508 277.551 277.895 279.074 278.668C280.598 279.441 281.898 280.59 282.977 282.113C284.078 283.637 284.922 285.523 285.508 287.773C286.094 290.023 286.387 292.625 286.387 295.578C286.387 299 286.023 301.918 285.297 304.332C284.594 306.723 283.656 308.68 282.484 310.203C281.336 311.727 280.012 312.84 278.512 313.543C277.035 314.223 275.523 314.562 273.977 314.562C272.688 314.562 271.551 314.434 270.566 314.176C269.605 313.918 268.773 313.602 268.07 313.227C267.367 312.852 266.781 312.477 266.312 312.102C265.844 311.703 265.469 311.375 265.188 311.117V328.273C265.188 328.578 265.141 328.941 265.047 329.363C264.953 329.785 264.719 330.184 264.344 330.559C263.992 330.957 263.453 331.297 262.727 331.578C262.023 331.859 261.051 332 259.809 332C258.566 332 257.582 331.848 256.855 331.543C256.152 331.262 255.613 330.91 255.238 330.488C254.863 330.09 254.629 329.68 254.535 329.258C254.441 328.859 254.395 328.531 254.395 328.273V283.695ZM265.188 306.09C265.188 306.277 265.27 306.605 265.434 307.074C265.598 307.543 265.855 308.023 266.207 308.516C266.559 309.008 267.004 309.453 267.543 309.852C268.105 310.227 268.785 310.414 269.582 310.414C270.613 310.414 271.492 310.027 272.219 309.254C272.945 308.457 273.543 307.391 274.012 306.055C274.48 304.695 274.82 303.125 275.031 301.344C275.242 299.539 275.348 297.617 275.348 295.578C275.348 293.07 275.207 290.949 274.926 289.215C274.668 287.48 274.281 286.086 273.766 285.031C273.25 283.953 272.629 283.18 271.902 282.711C271.199 282.219 270.402 281.973 269.512 281.973C268.996 281.973 268.48 282.125 267.965 282.43C267.449 282.711 266.98 283.074 266.559 283.52C266.16 283.941 265.832 284.422 265.574 284.961C265.316 285.5 265.188 286.016 265.188 286.508V306.09Z" fill="url(#paint1_linear_2_13)"/>
<defs>
<linearGradient id="paint0_linear_2_13" x1="146" y1="0" x2="146" y2="229" gradientUnits="userSpaceOnUse">
<stop stop-color="#16C7DF"/>
<stop offset="1" stop-color="#2A39C0"/>
</linearGradient>
<linearGradient id="paint1_linear_2_13" x1="283" y1="295" x2="-9" y2="295" gradientUnits="userSpaceOnUse">
<stop stop-color="#2A39C0"/>
<stop offset="1" stop-color="#16C7DF"/>
</linearGradient>
</defs>
</svg>
